<svg id="Layer_1" data-name="Layer 1" xmlns="http://www.w3.org/2000/svg" viewBox="0 0 300 300"><path d="M113.9,65h16.55c-9.93,9.25-17.82,21.21-23.33,35.2H79.29Z" fill="#25a9e0" fill-rule="evenodd"/><path d="M146.9,100.2H113.23c6.1-14.5,15-26.63,26-35.2h7.63Z" fill="#25a9e0" fill-rule="evenodd"/><path d="M186.6,100.2H153V65h7.64C171.76,73.57,180.58,85.7,186.6,100.2Z" fill="#25a9e0" fill-rule="evenodd"/><path d="M185.42,65l35.12,35.2H192.88c-5.51-14-13.4-25.95-23.33-35.2Z" fill="#25a9e0" fill-rule="evenodd"/><path d="M98.13,146.61H65.38V114.29l7.81-8h31.64A135.84,135.84,0,0,0,98.13,146.61Z" fill="#25a9e0" fill-rule="evenodd"/><path d="M146.9,146.61h-43a129.71,129.71,0,0,1,7-40.3h36Z" fill="#25a9e0" fill-rule="evenodd"/><path d="M153.1,106.31H189a130,130,0,0,1,7,40.3H153.1Z" fill="#25a9e0" fill-rule="evenodd"/><path d="M195.09,106.31h31.55l8,8v32.32H201.7a135.84,135.84,0,0,0-6.61-40.3Z" fill="#25a9e0" fill-rule="evenodd"/><path d="M65.38,152.8H98.13a135,135,0,0,0,6.78,40.55H73l-7.64-7.64Z" fill="#25a9e0" fill-rule="evenodd"/><path d="M103.89,152.8h43v40.55h-36A128.59,128.59,0,0,1,103.89,152.8Z" fill="#25a9e0" fill-rule="evenodd"/><path d="M188.81,193.35H153.1V152.8h42.84A130.89,130.89,0,0,1,188.81,193.35Z" fill="#25a9e0" fill-rule="evenodd"/><path d="M201.7,152.8h32.92v32.66l-7.81,7.89H194.92a135,135,0,0,0,6.78-40.55Z" fill="#25a9e0" fill-rule="evenodd"/><path d="M114.5,235,79.12,199.54h28c5.6,14,13.66,26.13,23.75,35.46Z" fill="#25a9e0" fill-rule="evenodd"/><path d="M113.31,199.54H146.9V235h-7.12C128.5,226.26,119.5,214.13,113.31,199.54Z" fill="#25a9e0" fill-rule="evenodd"/><path d="M186.35,199.54c-6.19,14.59-15.18,26.72-26.47,35.46H153V199.54Z" fill="#25a9e0" fill-rule="evenodd"/><path d="M185.25,235H168.79c10.09-9.33,18.15-21.46,23.75-35.46h28.08Z" fill="#25a9e0" fill-rule="evenodd"/></svg>