<svg xmlns="http://www.w3.org/2000/svg" height="800" width="1200" viewBox="-41.85 -10.375 362.7 62.25"><g fill="none"><path fill="#000" d="M44.8 17.7c0-8.9 6.6-16.1 16-16.1 5.7 0 9.2 2 12.1 4.8l-3.5 4c-2.5-2.3-5.1-3.9-8.7-3.9-5.9 0-10.2 4.9-10.2 10.9v.1c0 6.1 4.3 11 10.2 11 3.8 0 6.2-1.5 8.9-4l3.5 3.5c-3.2 3.4-6.8 5.5-12.6 5.5-9 .1-15.7-6.9-15.7-15.8M77.9 2.1h5.8l9.4 14.7 9.5-14.7h5.8v31h-5.5V10.9l-9.8 14.6H93L83.3 11v22.1h-5.4zm36.3 0h23V7h-17.5v8h15.5v4.9h-15.5v8.3h17.7v4.9h-23.2zm34.5 15.6c0-8.8 6.6-16.1 16-16.1 5.4 0 8.7 1.5 11.9 4.2l-3.5 4.1c-2.4-2-4.7-3.3-8.7-3.3-5.7 0-10 5-10 10.9v.1c0 6.4 4.2 11.1 10.5 11.1 2.9 0 5.6-.9 7.5-2.3v-5.8h-7.9v-4.7h13.2v13c-3.1 2.6-7.4 4.8-12.9 4.8-9.7-.1-16.1-7-16.1-16m34.6-8h5.4V15c1.5-3.5 4.2-5.9 8.3-5.7V15h-.3c-4.7 0-8 3.1-8 9.3v8.9h-5.4zm15.8 11.8c0-6.8 5.3-12.3 12.5-12.3S224 14.6 224 21.3v.1c0 6.6-5.3 12.2-12.5 12.2-7.1 0-12.4-5.4-12.4-12.1m19.6 0c0-4.2-3-7.6-7.2-7.6-4.3 0-7 3.4-7 7.4v.1c0 4.1 3 7.5 7.1 7.5 4.4.1 7.1-3.3 7.1-7.4m9.6 3.1V9.7h5.4V23c0 3.6 1.8 5.7 5 5.7 3.1 0 5.3-2.2 5.3-5.8V9.7h5.4v23.4H244v-3.6c-1.5 2.2-3.7 4.1-7.3 4.1-5.3 0-8.4-3.6-8.4-9m26.5-14.9h5.4v3.9c1.7-2.4 4.2-4.4 7.9-4.4 5.5 0 10.9 4.4 10.9 12.1v.1c0 7.7-5.3 12.1-10.9 12.1-3.9 0-6.3-1.9-7.9-4.1v12.1h-5.4zm18.7 11.8c0-4.6-3.1-7.6-6.7-7.6s-6.8 3-6.8 7.5v.1c0 4.5 3.2 7.5 6.8 7.5 3.7-.1 6.7-2.9 6.7-7.5z"/><path fill="#0071BA" d="M27.9 17.4h-9.2V8.8h7.7c.9 2.6 1.4 5.5 1.5 8.6zM8.4 8.8H1.7L0 10.5v6.9h7c0-3.1.5-6 1.4-8.6zM7 18.7H0v7l1.6 1.6h6.8C7.5 24.7 7 21.8 7 18.7zm11.7 9.9v7.6h1.5c2.4-1.9 4.3-4.4 5.7-7.6zM13.9 0h-3.5L3 7.5h5.9c1.2-3 2.9-5.5 5-7.5zm13.7 27.3h6.8l1.7-1.7v-7h-7c-.1 3.2-.6 6.1-1.5 8.7zm5.5-19.8L25.6 0h-3.4c2.1 2 3.8 4.5 5 7.5zm-5.2 11.2h-9.2v8.6h7.6c1-2.6 1.5-5.5 1.6-8.6zm6.5-9.9h-6.7c.9 2.6 1.4 5.5 1.4 8.6h7v-6.9zM9.7 27.3h7.7v-8.6H8.2c.1 3.1.6 6 1.5 8.6zm.5-19.8h7.2V0h-1.6c-2.4 1.8-4.3 4.4-5.6 7.5zM20.3 0h-1.6v7.5h7.2c-1.3-3.1-3.2-5.7-5.6-7.5zM2.9 28.6l7.6 7.6H14c-2.1-2-3.9-4.6-5.1-7.6zm13 7.6h1.5v-7.6h-7.2c1.4 3.1 3.3 5.7 5.7 7.6zm6.2 0h3.5l7.6-7.6h-6c-1.2 3-3 5.6-5.1 7.6zM8.2 17.4h9.2V8.8H9.7c-.9 2.6-1.4 5.5-1.5 8.6z"/></g></svg>